<svg width="469" height="173" viewBox="0 0 469 173" fill="none" xmlns="http://www.w3.org/2000/svg">
<path opacity="0.2" d="M8.12622 141.617H87.1751V170.566H120.467V141.617H140.893V113.713H120.467V5.875H76.8819L8.12622 114.195V141.617ZM87.8185 113.713H43.1876V112.426L86.5317 43.8313H87.8185V113.713Z" fill="url(#paint0_linear_1782_3054)"/>
<path d="M0 138.18H79.0489V167.129H112.341V138.18H132.767V110.276H112.341V2.43799H68.7556L0 110.758V138.18ZM79.6923 110.276H35.0614V108.989L78.4055 40.3943H79.6923V110.276Z" fill="#1E1E1E"/>
<path opacity="0.2" d="M336.167 141.617H415.216V170.566H448.508V141.617H468.933V113.713H448.508V5.875H404.922L336.167 114.195V141.617ZM415.859 113.713H371.228V112.426L414.572 43.8313H415.859V113.713Z" fill="url(#paint1_linear_1782_3054)"/>
<path d="M328.041 138.18H407.089V167.129H440.382V138.18H460.807V110.276H440.382V2.43799H396.796L328.041 110.758V138.18ZM407.733 110.276H363.102V108.989L406.446 40.3943H407.733V110.276Z" fill="#1E1E1E"/>
<path opacity="0.4" d="M239.332 173C280.746 173 305.756 141.477 305.836 87.1961C305.916 33.3177 280.586 2.43799 239.332 2.43799C197.998 2.43799 172.909 33.2372 172.828 87.1961C172.667 141.316 197.837 172.92 239.332 173ZM239.332 144.131C220.434 144.131 208.211 125.153 208.292 87.1961C208.372 49.8029 220.515 30.9856 239.332 30.9856C258.069 30.9856 270.292 49.8029 270.292 87.1961C270.373 125.153 258.15 144.131 239.332 144.131Z" fill="url(#paint2_linear_1782_3054)"/>
<path d="M229.559 85.0749C229.559 85.0749 216.616 83.2633 219.651 67.6157C219.651 67.6157 234.08 70.881 229.559 85.0749Z" fill="#47AD1D"/>
<path opacity="0.1" d="M229.559 85.0749C229.559 85.0749 216.616 83.2633 219.651 67.6157C219.651 67.6157 234.08 70.881 229.559 85.0749Z" fill="black"/>
<path d="M228.902 81.8099C228.651 81.0243 228.367 80.2441 228.025 79.4852C228.025 79.3837 227.999 79.2821 227.988 79.186C227.988 78.9722 227.951 78.7584 227.935 78.5447C227.897 78.0744 227.87 77.6094 227.844 77.1445C227.79 76.2093 227.726 75.2741 227.715 74.3388C227.715 74.2907 227.635 74.2907 227.635 74.3388C227.635 75.2741 227.635 76.2093 227.635 77.1445C227.635 77.6094 227.678 78.0744 227.71 78.5447C227.71 78.6462 227.71 78.7477 227.71 78.8546C226.984 77.297 226.114 75.8103 225.113 74.4137C224.668 73.7938 224.195 73.1952 223.697 72.618C223.162 72.0302 222.628 71.4691 222.093 70.8812C222.061 70.8438 222.003 70.8812 222.04 70.94C222.969 71.9698 223.804 73.0805 224.536 74.2587C224.926 74.8519 225.3 75.4611 225.653 76.0864L225.53 76.0383L225.07 75.8512L224.001 75.4504L221.922 74.6755C221.88 74.6755 221.853 74.7343 221.89 74.7504C222.58 75.0229 223.264 75.3115 223.943 75.6054L224.942 76.0383L225.476 76.2467C225.585 76.3002 225.7 76.3414 225.818 76.3696C226.08 76.8346 226.353 77.3048 226.577 77.7858C227.187 78.9993 227.722 80.2485 228.18 81.5267C228.212 81.6175 228.245 81.703 228.271 81.7939C227.93 81.5952 227.572 81.4254 227.202 81.2862L225.861 80.6716C224.958 80.2548 224.055 79.8326 223.189 79.3409C223.18 79.336 223.169 79.3349 223.159 79.3379C223.149 79.3409 223.141 79.3478 223.136 79.357C223.131 79.3662 223.129 79.377 223.132 79.387C223.135 79.397 223.142 79.4055 223.152 79.4104C224.039 79.8967 224.91 80.4151 225.824 80.8961C226.267 81.1366 226.716 81.3717 227.17 81.5961C227.549 81.82 227.96 81.984 228.389 82.0825C228.821 83.2671 229.106 84.5 229.239 85.7539C229.383 87.5228 229.367 89.3024 229.404 91.0713C229.404 91.1033 229.452 91.1033 229.452 91.0713C229.581 89.468 229.655 87.8648 229.661 86.2295C229.65 84.7248 229.393 83.232 228.902 81.8099Z" fill="#263238"/>
<path d="M226.914 72.6228C226.789 73.5363 226.744 74.459 226.78 75.3803H226.823C226.871 74.4665 226.882 73.558 226.989 72.6441C226.994 72.5907 226.919 72.5693 226.914 72.6228Z" fill="#263238"/>
<path d="M223.21 73.4037C222.63 73.1844 222.072 72.9106 221.543 72.5861C221.506 72.5594 221.463 72.6288 221.506 72.6556C222.024 73.0055 222.591 73.2757 223.189 73.4572C223.196 73.46 223.204 73.4599 223.211 73.4569C223.218 73.4539 223.224 73.4482 223.226 73.4411C223.229 73.4341 223.229 73.4261 223.226 73.4191C223.223 73.4121 223.217 73.4066 223.21 73.4037Z" fill="#263238"/>
<path d="M229.971 109.882C229.971 108.45 229.933 107.023 229.917 105.607C229.917 100.856 229.853 96.105 229.768 91.3541C229.7 87.5847 229.611 83.8153 229.5 80.046C229.5 80.0357 229.497 80.0257 229.492 80.0172C229.486 80.0087 229.478 80.002 229.468 79.9979V76.9036C229.468 76.9036 229.468 76.8662 229.41 76.8662C229.351 76.8662 229.346 76.8662 229.346 76.909V80.0032C229.346 80.0032 229.313 80.0299 229.313 80.046C229.121 86.7582 228.955 93.4703 228.913 100.183C228.913 101.551 228.913 102.913 228.913 104.281C228.866 108.66 228.849 113.037 228.859 117.412V119.501C228.859 123.504 228.902 143.55 228.902 147.547C228.902 147.761 229.142 147.868 229.399 147.879C229.655 147.889 229.997 147.772 229.997 147.526C229.997 143.112 230.03 122.665 230.03 118.246C229.981 115.451 229.992 112.666 229.971 109.882Z" fill="#263238"/>
<path d="M224.568 105.559C224.568 105.559 218.342 100.947 212.431 104.063C206.521 107.178 205.596 119.192 205.596 119.192C205.596 119.192 214.27 120.437 219.737 115.232C224.995 110.203 224.568 105.559 224.568 105.559Z" fill="#47AD1D"/>
<path d="M226.262 105.82C225.117 105.368 223.877 105.206 222.654 105.35C222.404 105.306 222.15 105.281 221.896 105.275L221.014 105.211C220.41 105.163 219.806 105.126 219.202 105.083C217.973 104.992 216.739 104.912 215.515 104.789C215.472 104.789 215.461 104.864 215.515 104.869C216.728 105.024 217.936 105.195 219.154 105.318C219.779 105.382 220.405 105.446 221.035 105.494L221.489 105.537C221.302 105.58 221.115 105.623 220.955 105.676C219.979 105.957 219.035 106.341 218.139 106.82C217.647 106.911 217.161 107.044 216.68 107.156C215.905 107.338 215.141 107.541 214.376 107.739C212.864 108.134 211.368 108.583 209.866 109.016C209.818 109.016 209.839 109.107 209.866 109.091C211.368 108.728 212.875 108.391 214.376 108.022L216.568 107.488L217.139 107.354C215.466 108.389 213.971 109.688 212.714 111.202C211.497 112.688 210.464 114.316 209.636 116.049C209.636 116.097 209.679 116.14 209.706 116.092C210.734 114.308 211.992 112.665 213.447 111.207L213.366 111.459C213.249 111.822 213.137 112.191 213.019 112.559C212.789 113.292 212.554 114.024 212.335 114.761C212.335 114.809 212.394 114.825 212.415 114.761C212.677 114.05 212.95 113.34 213.174 112.624L213.543 111.555C213.607 111.373 213.671 111.191 213.73 111.02L213.773 110.903C214.464 110.224 215.202 109.594 215.98 109.016C217.005 108.262 218.113 107.627 219.282 107.124C219.282 107.231 219.245 107.338 219.218 107.44C219.159 107.728 219.095 108.012 219.037 108.295C218.914 108.883 218.801 109.476 218.684 110.064C218.454 111.271 218.304 112.49 218.08 113.698C218.08 113.708 218.084 113.717 218.091 113.724C218.098 113.731 218.107 113.735 218.117 113.735C218.127 113.735 218.137 113.731 218.144 113.724C218.151 113.717 218.155 113.708 218.155 113.698C218.438 112.485 218.796 111.293 219.069 110.08C219.202 109.47 219.336 108.867 219.464 108.257C219.523 107.974 219.582 107.686 219.635 107.402C219.667 107.242 219.705 107.087 219.726 106.927L220.063 106.788C221.698 106.184 223.504 105.719 225.241 106.077C226.063 106.233 226.834 106.588 227.486 107.112C228.139 107.635 228.652 108.312 228.982 109.08C229.035 109.214 229.249 109.128 229.217 108.99C229.007 108.267 228.63 107.604 228.116 107.053C227.603 106.503 226.968 106.081 226.262 105.82Z" fill="#263238"/>
<path d="M216.733 110.951L216.199 113.318C216.004 114.076 215.86 114.845 215.766 115.621C215.766 115.653 215.809 115.653 215.814 115.621C216.046 114.862 216.224 114.087 216.349 113.302C216.504 112.522 216.659 111.747 216.808 110.967C216.809 110.962 216.809 110.957 216.808 110.952C216.808 110.947 216.806 110.942 216.803 110.938C216.8 110.934 216.797 110.93 216.793 110.927C216.788 110.924 216.784 110.922 216.779 110.921C216.774 110.92 216.769 110.92 216.764 110.921C216.759 110.922 216.754 110.924 216.75 110.927C216.746 110.929 216.742 110.933 216.739 110.937C216.736 110.941 216.734 110.946 216.733 110.951Z" fill="#263238"/>
<path d="M210.711 112.955C209.92 113.361 209.15 113.816 208.322 114.147C208.317 114.149 208.313 114.152 208.31 114.156C208.306 114.159 208.304 114.164 208.302 114.168C208.3 114.173 208.299 114.178 208.3 114.183C208.3 114.188 208.301 114.193 208.303 114.198C208.305 114.202 208.308 114.206 208.312 114.21C208.316 114.213 208.32 114.216 208.325 114.217C208.329 114.219 208.334 114.22 208.339 114.22C208.344 114.22 208.349 114.218 208.354 114.216C209.166 113.849 209.958 113.439 210.727 112.987C210.727 112.987 210.732 112.95 210.711 112.955Z" fill="#263238"/>
<path d="M225.968 97.0669C225.968 97.0669 218.358 97.5479 214.815 92.5298C211.272 87.5117 212.073 80.3506 212.073 80.3506C212.073 80.3506 220.063 81.3179 223.237 84.9252C226.411 88.5324 225.968 97.0669 225.968 97.0669Z" fill="#47AD1D"/>
<path d="M229.538 104.575C229.276 103.758 228.945 102.972 228.64 102.154C228.335 101.337 228.025 100.626 227.694 99.8724C227.015 98.3395 226.253 96.8445 225.412 95.394C224.878 94.4695 224.301 93.5717 223.707 92.6846C223.707 92.551 223.67 92.4174 223.649 92.2784C223.611 92.0433 223.579 91.8081 223.542 91.573C223.467 91.092 223.381 90.6111 223.301 90.1301C223.125 89.0613 222.911 88.0352 222.74 86.9824C222.74 86.9343 222.655 86.9343 222.665 86.9824C222.815 88.0192 222.922 89.0613 223.066 90.1034C223.136 90.6378 223.205 91.1241 223.285 91.6318C223.312 91.8188 223.339 92.0005 223.371 92.1662C222.215 90.4698 220.967 88.8391 219.63 87.2817C219.448 87.0733 219.261 86.8649 219.095 86.6618C219.095 86.603 219.047 86.5442 219.026 86.4854L218.86 86.0525C218.748 85.7479 218.641 85.4433 218.534 85.144C218.321 84.5455 218.128 83.947 217.962 83.3324C217.962 83.2843 217.877 83.3324 217.888 83.3324C218.043 83.9577 218.203 84.5829 218.39 85.1975C218.476 85.4968 218.572 85.7907 218.679 86.0846L218.732 86.2289C217.759 85.1601 216.744 84.15 215.723 83.14C215.686 83.1026 215.632 83.14 215.665 83.1988C217.632 85.2538 219.435 87.4606 221.057 89.7988C220.873 89.7393 220.686 89.6929 220.496 89.6598C219.908 89.5422 219.32 89.4621 218.727 89.3873C217.487 89.2269 216.252 89.072 215.018 88.8796C215.008 88.8796 214.998 88.8835 214.991 88.8905C214.984 88.8976 214.98 88.9071 214.98 88.917C214.98 88.9269 214.984 88.9364 214.991 88.9434C214.998 88.9504 215.008 88.9544 215.018 88.9544C216.199 89.1842 217.364 89.4514 218.534 89.7186C219.069 89.8468 219.646 89.9537 220.202 90.066C220.655 90.163 221.101 90.2898 221.538 90.4454C221.661 90.6218 221.789 90.7981 221.906 90.9798C222.468 91.7921 223.002 92.6205 223.51 93.4541L222.735 93.3045C222.147 93.1923 221.559 93.0854 220.966 92.9892C219.806 92.7968 218.647 92.5937 217.498 92.3319C217.489 92.3349 217.482 92.3404 217.477 92.3475C217.472 92.3547 217.47 92.3632 217.47 92.372C217.47 92.3807 217.472 92.3892 217.477 92.3963C217.482 92.4035 217.489 92.409 217.498 92.412C218.663 92.6846 219.817 92.9999 220.971 93.3098C221.506 93.4595 222.088 93.5931 222.655 93.716L223.499 93.903C223.612 93.9291 223.726 93.9487 223.841 93.9618C224.953 95.7646 225.993 97.6065 226.962 99.4876C227.384 100.316 227.796 101.155 228.191 101.994C228.587 102.833 228.945 103.742 229.319 104.618C229.319 104.837 229.597 104.762 229.538 104.575Z" fill="#263238"/>
<path d="M221.746 87.0842C221.602 86.3574 221.452 85.636 221.292 84.9092C221.292 84.8611 221.206 84.9092 221.212 84.9359C221.356 85.6467 221.495 86.3628 221.623 87.0735C221.751 87.7843 221.858 88.5111 222.056 89.2112C222.006 88.4954 221.902 87.7845 221.746 87.0842Z" fill="#263238"/>
<path d="M217.31 86.8543C216.958 86.6833 216.584 86.539 216.215 86.3947L215.638 86.1702L215.344 86.0527C215.232 86.0174 215.125 85.9709 215.023 85.9137C214.964 85.871 214.932 85.9672 214.986 85.9778C215.099 86.0089 215.209 86.0538 215.312 86.1115L215.6 86.2397L216.135 86.4855C216.5 86.6553 216.875 86.8052 217.257 86.9344C217.268 86.9415 217.281 86.9441 217.293 86.9416C217.306 86.9391 217.317 86.9317 217.324 86.9211C217.331 86.9105 217.333 86.8974 217.331 86.8849C217.328 86.8724 217.321 86.8614 217.31 86.8543Z" fill="#263238"/>
<path d="M233.754 91.0815C233.754 91.0815 238.361 82.4775 245.367 81.1468C252.373 79.8161 256.659 87.0253 256.659 87.0253C256.659 87.0253 251.55 93.5505 245.121 94.6888C238.692 95.8271 233.754 91.0815 233.754 91.0815Z" fill="#47AD1D"/>
<path d="M250.064 85.0004C248.238 84.7563 246.385 84.7797 244.565 85.0699L244.881 84.8989C245.397 84.6388 245.916 84.3716 246.436 84.0972C247.505 83.5628 248.573 82.9429 249.722 82.494C249.729 82.4934 249.736 82.4912 249.741 82.4876C249.747 82.484 249.752 82.4791 249.755 82.4733C249.759 82.4675 249.761 82.461 249.761 82.4542C249.762 82.4475 249.76 82.4408 249.758 82.4346C249.755 82.4284 249.751 82.4229 249.746 82.4186C249.741 82.4143 249.735 82.4113 249.728 82.4098C249.721 82.4083 249.715 82.4083 249.708 82.41C249.701 82.4116 249.695 82.4148 249.69 82.4192C248.595 82.9536 247.462 83.3598 246.361 83.8674C245.827 84.1186 245.292 84.4019 244.758 84.6637C244.41 84.8508 244.026 85.0218 243.689 85.2409C242.151 85.5521 240.656 86.0492 239.237 86.7212L240.108 85.7646C240.766 85.0485 241.407 84.3003 242.123 83.627C242.16 83.5949 242.123 83.5414 242.064 83.5735C241.332 84.2415 240.557 84.8561 239.846 85.5508C239.504 85.8822 239.173 86.2349 238.852 86.5929C238.692 86.7693 238.532 86.9563 238.377 87.1274C235.971 88.4167 233.88 90.2231 232.256 92.4168C230.632 94.6104 229.513 97.1368 228.982 99.8143C228.982 99.8624 229.046 99.8891 229.057 99.8143C230.045 96.5369 231.812 93.5479 234.208 91.1034C236.788 88.4737 240.033 86.595 243.598 85.6684C245.712 85.1313 247.899 84.9329 250.075 85.0806C250.082 85.0677 250.085 85.0531 250.083 85.0388C250.081 85.0244 250.074 85.011 250.064 85.0004Z" fill="#263238"/>
<path opacity="0.1" d="M256.665 87.0255C256.665 87.0255 251.55 93.5507 245.121 94.689C240.215 95.5601 236.181 93.0002 234.545 91.739L234.187 91.1619C234.187 91.1619 237.506 88.3669 243.78 86.753C250.054 85.139 256.665 87.0255 256.665 87.0255Z" fill="black"/>
<path d="M245.992 81.9325C245.457 82.2502 244.938 82.5944 244.437 82.9639C243.95 83.3341 243.498 83.7473 243.085 84.1984C243.08 84.2066 243.078 84.2162 243.079 84.2258C243.08 84.2353 243.085 84.2442 243.091 84.251C243.098 84.2578 243.107 84.2621 243.117 84.2632C243.126 84.2643 243.136 84.2622 243.144 84.2572C243.609 83.8511 244.079 83.4449 244.56 83.0655C245.03 82.68 245.522 82.3231 246.035 81.9967C246.078 81.9753 246.035 81.9111 245.992 81.9325Z" fill="#263238"/>
<path d="M249.84 83.3913C249.578 83.4982 249.306 83.5944 249.055 83.7013L248.274 84.0219C248.221 84.0486 248.242 84.1395 248.301 84.1128L249.081 83.7975L249.861 83.4661C249.91 83.4501 249.883 83.3699 249.84 83.3913Z" fill="#263238"/>
<path d="M232.835 101.909C232.835 101.909 234.064 110.46 240.483 113.426C246.901 116.392 254.725 113.426 254.725 113.426C254.725 113.426 251.646 94.9619 232.835 101.909Z" fill="#47AD1D"/>
<path d="M250.3 107.873C249.712 107.809 249.124 107.708 248.536 107.601L247.676 107.435L247.222 107.35C247.051 107.184 246.88 107.024 246.687 106.869C245.471 105.799 244.158 104.845 242.765 104.02C242.005 103.572 241.22 103.169 240.413 102.813H240.531L242.642 102.903C244.053 102.968 245.458 103 246.869 103.09C246.917 103.09 246.917 103.016 246.869 103.016C245.458 102.919 244.053 102.764 242.642 102.642L240.59 102.46L239.521 102.364H239.253C238.885 102.225 238.516 102.096 238.142 101.984C236.393 101.382 234.511 101.278 232.707 101.685C231.104 102.096 229.5 103.155 229.068 104.854C229.068 104.913 229.142 104.956 229.169 104.897C229.768 103.475 231.35 102.759 232.771 102.46C233.73 102.276 234.713 102.258 235.678 102.406C235.745 102.845 235.854 103.277 236.004 103.694C236.181 104.298 236.357 104.897 236.539 105.495C236.902 106.692 237.303 107.884 237.656 109.081C237.656 109.129 237.746 109.108 237.73 109.081C237.436 107.884 237.196 106.676 236.897 105.474C236.752 104.886 236.603 104.298 236.459 103.71C236.376 103.299 236.267 102.894 236.133 102.497C236.696 102.594 237.252 102.725 237.8 102.887C238.79 103.183 239.761 103.54 240.707 103.956C240.803 104.565 240.937 105.164 241.076 105.768C241.252 106.521 241.45 107.264 241.685 108.002C241.685 108.012 241.689 108.021 241.696 108.028C241.703 108.035 241.713 108.039 241.722 108.039C241.732 108.039 241.742 108.035 241.749 108.028C241.756 108.021 241.76 108.012 241.76 108.002C241.757 107.955 241.757 107.909 241.76 107.863C241.616 107.168 241.466 106.473 241.316 105.773C241.199 105.239 241.087 104.651 240.969 104.084C241.767 104.441 242.545 104.836 243.304 105.271C243.304 105.447 243.363 105.624 243.39 105.805C243.433 106.094 243.486 106.388 243.539 106.676C243.662 107.339 243.796 107.991 243.951 108.643C244.242 109.902 244.61 111.143 245.052 112.357C245.047 112.364 245.044 112.373 245.044 112.381C245.044 112.39 245.047 112.398 245.052 112.405L245.084 112.448C245.116 112.48 245.159 112.448 245.153 112.405C244.854 111.144 244.517 109.888 244.24 108.622C244.101 107.986 243.962 107.35 243.833 106.714C243.769 106.398 243.71 106.078 243.652 105.763C243.652 105.672 243.62 105.575 243.604 105.474C244.467 105.984 245.302 106.54 246.105 107.141C247.489 108.179 248.771 109.347 249.931 110.631C249.974 110.684 250.065 110.631 250.022 110.556C249.545 109.908 249.035 109.286 248.493 108.691C248.173 108.344 247.836 108.012 247.494 107.686H247.601C247.9 107.74 248.205 107.783 248.504 107.82C249.097 107.9 249.696 107.959 250.289 108.028C250.332 107.959 250.353 107.884 250.3 107.873Z" fill="#263238"/>
<path d="M245.794 110.769C245.794 110.694 245.794 110.619 245.757 110.544C245.72 110.47 245.693 110.363 245.677 110.266C245.543 109.695 245.431 109.117 245.329 108.54C245.329 108.503 245.26 108.514 245.26 108.54C245.298 109.303 245.462 110.054 245.746 110.763H245.794V110.769Z" fill="#263238"/>
<path d="M240.424 110.63C240.421 110.621 240.415 110.612 240.408 110.605C240.4 110.599 240.391 110.594 240.381 110.593C240.205 109.839 240.028 109.086 239.873 108.322C239.793 107.921 239.708 107.525 239.633 107.124C239.59 106.905 239.553 106.692 239.515 106.472C239.492 106.289 239.445 106.11 239.376 105.938C239.373 105.931 239.367 105.926 239.361 105.922C239.354 105.918 239.347 105.916 239.339 105.916C239.331 105.916 239.324 105.918 239.317 105.922C239.311 105.926 239.305 105.931 239.302 105.938C239.297 106.325 239.351 106.711 239.462 107.082C239.542 107.499 239.622 107.915 239.713 108.327C239.9 109.171 240.114 110.01 240.349 110.839C240.349 110.881 240.44 110.871 240.435 110.839C240.429 110.807 240.424 110.694 240.424 110.63Z" fill="#263238"/>
<path d="M249.717 105.42C248.547 105.255 247.376 105.089 246.201 104.945C246.147 104.945 246.131 105.014 246.201 105.02C247.371 105.196 248.547 105.34 249.717 105.495C249.749 105.501 249.765 105.426 249.717 105.42Z" fill="#263238"/>
<path d="M229.548 81.8949C229.548 81.8949 225.62 64.6655 244.132 57.6968C244.132 57.6968 249.257 80.3718 229.548 81.8949Z" fill="#47AD1D"/>
<path d="M233.546 72.1264C233.609 72.0809 233.675 72.0398 233.744 72.0035L234.812 71.421L236.95 70.2185C238.366 69.4276 239.761 68.6153 241.183 67.8351C241.225 67.8083 241.183 67.7389 241.14 67.7656C239.713 68.5405 238.265 69.2673 236.832 70.0208L234.695 71.1431L233.829 71.6026C234.444 70.4323 235.106 69.2833 235.828 68.1771C236.795 66.7021 237.853 65.2966 238.959 63.9018C239.008 63.8377 238.927 63.7575 238.869 63.811C237.247 65.3904 235.812 67.1513 234.593 69.0589C234.593 69.0001 234.593 68.9359 234.593 68.8825C234.593 68.4496 234.625 68.0221 234.631 67.5946C234.631 66.7555 234.631 65.9112 234.631 65.0722C234.631 65.0187 234.551 65.0241 234.551 65.0722C234.519 65.9005 234.417 66.7288 234.369 67.5518C234.369 67.9687 234.326 68.3802 234.315 68.7917C234.315 69.0161 234.289 69.2726 234.315 69.5131C233.936 70.1223 233.573 70.7369 233.247 71.3622C232.624 72.4833 232.071 73.6416 231.59 74.8305C231.59 74.403 231.547 73.9701 231.52 73.5426C231.467 72.602 231.349 71.6614 231.312 70.7155C231.312 70.6674 231.232 70.6674 231.232 70.7155C231.232 71.6561 231.232 72.602 231.232 73.5426C231.232 74.0182 231.264 74.4885 231.291 74.9587L231.323 75.4932C230.734 77.0323 230.268 78.6155 229.928 80.228C229.608 81.9499 229.377 83.6873 229.239 85.4332C229.433 83.8621 229.76 82.3103 230.216 80.7945C230.446 79.9769 230.687 79.1913 230.949 78.3683C231.718 78.0049 232.456 77.5506 233.199 77.1392L235.523 75.8673C237.068 75.0229 238.607 74.1625 240.205 73.4143C240.247 73.4143 240.205 73.3235 240.162 73.3448C238.559 74.077 236.918 74.7717 235.352 75.568C234.561 75.9634 233.786 76.3856 233.017 76.8185C232.376 77.1819 231.713 77.5453 231.104 77.9621C231.28 77.4277 231.467 76.8933 231.675 76.3589C232.225 74.9166 232.849 73.5038 233.546 72.1264Z" fill="#263238"/>
<path d="M231.985 68.187C231.985 68.1336 231.9 68.1389 231.905 68.187C231.969 69.1703 232.007 70.1536 232.108 71.1316C232.108 71.1851 232.199 71.1851 232.194 71.1316C232.162 70.143 232.055 69.1703 231.985 68.187Z" fill="#263238"/>
<path d="M240.857 71.4739C239.697 71.9442 238.532 72.3824 237.378 72.8687C237.345 72.8687 237.378 72.9329 237.378 72.9222C238.548 72.4839 239.702 72.003 240.862 71.5487C240.926 71.5327 240.905 71.4579 240.857 71.4739Z" fill="#263238"/>
<path d="M242.631 63.5326C241.499 64.0536 240.4 64.6425 239.339 65.2962C239.285 65.3283 239.339 65.4138 239.392 65.3817C240.461 64.7511 241.562 64.1526 242.674 63.5968C242.706 63.5754 242.663 63.5112 242.631 63.5326Z" fill="#263238"/>
<path d="M229.247 170.562C270.661 170.562 295.671 139.039 295.751 84.7581C295.831 30.8797 270.501 0 229.247 0C187.914 0 162.824 30.7992 162.743 84.7581C162.582 138.878 187.752 170.482 229.247 170.562ZM229.247 141.693C210.349 141.693 198.126 122.715 198.207 84.7581C198.287 47.3649 210.43 28.5476 229.247 28.5476C247.984 28.5476 260.207 47.3649 260.207 84.7581C260.288 122.715 248.065 141.693 229.247 141.693Z" fill="#47AD1D"/>
<defs>
<linearGradient id="paint0_linear_1782_3054" x1="92.3438" y1="208.71" x2="1.25855" y2="17.2109" gradientUnits="userSpaceOnUse">
<stop stop-color="#1E1E1E"/>
<stop offset="1" stop-color="#1E1E1E" stop-opacity="0"/>
</linearGradient>
<linearGradient id="paint1_linear_1782_3054" x1="420.384" y1="208.71" x2="329.299" y2="17.2109" gradientUnits="userSpaceOnUse">
<stop stop-color="#1E1E1E"/>
<stop offset="1" stop-color="#1E1E1E" stop-opacity="0"/>
</linearGradient>
<linearGradient id="paint2_linear_1782_3054" x1="257.199" y1="212.504" x2="160.901" y2="16.6591" gradientUnits="userSpaceOnUse">
<stop stop-color="#47AD1D"/>
<stop offset="1" stop-color="#47AD1D" stop-opacity="0"/>
</linearGradient>
</defs>
</svg>
