<svg width="159" height="97" viewBox="0 0 159 97" fill="none" xmlns="http://www.w3.org/2000/svg">
<path opacity="0.1" fill-rule="evenodd" clip-rule="evenodd" d="M27.7587 33.199C25.7127 33.7071 21.3239 33.1353 20.1373 26.783C18.9117 25.784 16.3616 23.2568 15.9661 21.1393C15.149 20.4734 13.692 18.6739 14.4005 16.8036C13.0994 15.0631 10.3982 11.0528 10.0027 8.93534L4.37924 0.068155C6.10265 1.54083 9.9779 5.1618 11.6917 7.86418C12.7903 8.35164 15.4611 10.4471 17.3563 14.9291C18.6711 16.0688 21.5068 19.0465 22.3308 21.8395C25.1665 23.1988 30.2221 27.3738 27.7587 33.199ZM37.1925 33.1372C35.6991 31.716 33.8638 28.2618 38.4693 25.8147C38.4453 24.843 39.0727 22.4714 41.7751 20.7576C41.751 19.786 42.2096 17.5216 44.2364 16.2363C44.7753 14.9077 46.1065 12.0899 47.1199 11.4472C47.2847 12.3295 47.3528 14.6152 46.3065 16.6997C46.8421 17.5443 47.5447 19.5858 46.0699 20.9945C46.0287 22.7968 45.248 26.6072 42.455 27.4312C42.5409 29.7452 41.6087 34.126 37.1925 33.1372ZM35.03 42.7972C33.6225 43.6898 30.3337 44.3545 28.4386 39.8725C26.5435 35.3904 28.6513 34.6063 29.9421 34.7745C31.6551 34.6748 35.2645 34.9514 35.9978 36.8546C36.1209 37.1739 36.2398 37.4531 36.3473 37.7055C37.0409 39.3337 37.2591 39.8458 35.03 42.7972ZM25.3285 42.4366C24.5595 43.7136 22.0329 45.8291 18.0781 44.0743C16.5299 45.0562 12.9967 46.7048 11.25 45.4442C10.4432 46.3506 8.14801 47.6483 5.42081 45.5886L0.477273 43.395L5.19416 43.364C6.00089 42.4577 8.27347 40.9375 10.91 42.1074C11.7682 40.9711 14.0593 39.0444 16.3581 40.4285C19.0838 38.5026 24.6939 36.2078 25.3285 42.4366ZM41.2815 42.3846C41.71 43.0602 40.4851 44.8632 39.8192 45.6803C41.2885 46.1299 44.2889 46.7533 44.536 45.6492C44.845 44.2692 40.7459 41.5401 41.2815 42.3846ZM146.163 76.5269C144.551 80.5421 141.265 80.7867 139.823 80.4072C135.936 75.4991 141.558 73.2334 144.855 72.714C145.538 70.1192 148.523 69.9033 149.931 70.1198C151.006 67.443 153.695 66.9486 154.905 67.0361L158.308 63.7701L156.293 68.7889C155.774 72.1668 153.224 72.8365 152.013 72.7491C151.64 74.8705 147.957 76.1516 146.163 76.5269ZM133.119 87.4283C134.75 87.0871 137.571 85.271 135.805 80.7364C134.04 76.2019 131.982 77.1091 131.174 78.1295C129.876 79.2523 127.481 81.9668 128.282 83.8425C128.416 84.1572 128.526 84.4403 128.625 84.6962L128.625 84.6962C129.262 86.3471 129.463 86.8662 133.119 87.4283ZM128.349 91.4911C128.513 92.2741 130.648 92.7129 131.695 92.8345C130.955 94.1812 129.239 96.7197 128.292 96.1005C127.108 95.3264 128.145 90.5122 128.349 91.4911ZM131.641 75.4775C133.462 74.4155 136.21 70.946 132.632 65.5645C132.814 63.9939 132.881 60.4043 131.688 58.6104C131.81 57.5634 131.6 55.2575 129.788 54.4105C129.508 52.2556 128.649 47.4974 127.456 45.7035L125.306 35.4259C125.097 37.6832 124.843 42.9808 125.498 46.113C125.051 47.2283 124.597 50.5925 126.362 55.1271C126.214 56.8608 126.257 60.9725 127.613 63.5494C126.528 66.5008 125.814 73.0184 131.641 75.4775ZM124.834 82.0097C124.914 79.9497 123.822 76.1937 118.814 77.6499C118.154 76.9365 116.051 75.6736 112.918 76.3287C112.258 75.6154 110.351 74.3116 108.002 74.803C106.689 74.2262 103.77 73.134 102.596 73.3797C103.093 74.1271 104.637 75.8132 106.841 76.5783C107.045 77.5573 107.965 79.5107 110.004 79.4926C111.29 80.756 114.506 82.9437 117.083 81.5874C118.635 83.3063 122.357 85.7973 124.834 82.0097Z" fill="#47AD1D"/>
</svg>
