<svg width="21" height="21" viewBox="0 0 21 21" fill="none" xmlns="http://www.w3.org/2000/svg">
<path d="M17.888 1.00037H3.111C1.94513 1.00037 1 1.94549 1 3.11136V17.8883C1 19.0542 1.94513 19.9993 3.111 19.9993H17.888C19.0538 19.9993 19.999 19.0542 19.999 17.8883V3.11136C19.999 1.94549 19.0538 1.00037 17.888 1.00037Z" stroke="black" stroke-width="2" stroke-linecap="round" stroke-linejoin="round"/>
<path d="M6.8059 8.38775C7.68031 8.38775 8.38915 7.6789 8.38915 6.8045C8.38915 5.9301 7.68031 5.22125 6.8059 5.22125C5.9315 5.22125 5.22266 5.9301 5.22266 6.8045C5.22266 7.6789 5.9315 8.38775 6.8059 8.38775Z" stroke="black" stroke-width="2" stroke-linecap="round" stroke-linejoin="round"/>
<path d="M19.9983 13.667L14.7208 8.38953L3.11035 20" stroke="black" stroke-width="2" stroke-linecap="round" stroke-linejoin="round"/>
</svg>
