<svg width="191" height="230" viewBox="0 0 191 230" fill="none" xmlns="http://www.w3.org/2000/svg">
<g opacity="0.15">
<path d="M50.2672 32.8335C53.0987 32.3576 58.1954 28.8364 55.9302 18.5581C53.665 8.27975 48.3796 1.90339 46.02 0C44.3683 2.85508 41.2065 10.5638 41.7728 18.5581C42.4806 28.5508 43.1884 32.8335 50.2672 32.8335Z" fill="#47AD1D"/>
<path d="M30.4467 34.261C32.8063 33.5472 37.1007 29.9784 35.4018 21.4131C33.7029 12.8479 28.559 7.37564 26.1993 5.71017C23.1319 7.85148 17.7048 14.5609 20.5363 24.2682C23.3678 33.9755 28.323 34.9748 30.4467 34.261Z" fill="#47AD1D"/>
<path d="M72.2113 47.8227C75.2787 48.7744 82.2631 48.6792 85.6609 40.685C89.0587 32.6907 88.0205 26.4095 87.0766 24.2682C83.5373 24.0303 75.3261 25.6958 70.7957 34.261C66.2653 42.8263 69.8517 46.871 72.2113 47.8227Z" fill="#47AD1D"/>
<path d="M16.2892 42.1125C17.9881 46.1096 16.9971 49.4881 16.2892 50.6778C13.9297 51.8674 8.07789 52.9618 3.54748 47.8227C-0.982923 42.6835 -0.227856 35.2127 0.71598 32.1197C7.08686 31.4059 14.1656 37.1161 16.2892 42.1125Z" fill="#47AD1D"/>
<path d="M60.8854 60.6706C59.4696 60.1947 56.4966 57.53 55.9303 50.6778C55.364 43.8256 51.4471 45.9193 49.5594 47.8227C47.6717 48.5364 43.047 49.5357 39.6491 47.8227C35.5071 45.7344 34.7313 47.0403 32.7257 50.4164L32.5704 50.6778C31.9779 51.6735 31.4956 52.7803 30.9851 53.9518C29.666 56.9791 28.1589 60.4379 24.0759 63.5256C19.5455 66.9517 22.1882 71.1392 24.0759 72.8047C24.5478 73.7564 26.4826 75.6597 30.4467 75.6597C31.7887 75.6597 33.0268 75.5027 34.2736 75.3445C37.6305 74.9187 41.05 74.485 46.7279 77.0873C52.9572 79.9424 62.0652 75.4218 65.8405 72.8047C67.9642 70.9013 69.9462 65.8097 60.8854 60.6706Z" fill="#47AD1D"/>
</g>
<g opacity="0.1">
<path d="M134.223 174.898C131.55 173.85 127.287 169.355 131.62 159.763C135.953 150.171 142.438 145.019 145.138 143.642C146.167 146.776 147.674 154.971 145.474 162.677C142.724 172.31 141.15 176.355 134.223 174.898Z" fill="#47AD1D"/>
<path d="M153.325 180.376C151.163 179.191 147.695 174.815 151.121 166.783C154.547 158.751 160.707 154.455 163.359 153.311C165.92 156.038 169.849 163.721 165.08 172.637C160.311 181.554 155.256 181.511 153.325 180.376Z" fill="#47AD1D"/>
<path d="M109.663 185.049C106.465 185.349 99.6501 183.818 97.9708 175.295C96.2916 166.773 98.6007 160.84 99.9651 158.938C103.478 159.434 111.17 162.755 113.84 172.069C116.51 181.383 112.168 184.603 109.663 185.049Z" fill="#47AD1D"/>
<path d="M165.563 190.973C163.077 194.535 163.352 198.045 163.799 199.355C165.863 201.005 171.365 203.281 176.856 199.184C182.347 195.088 183.146 187.622 182.86 184.401C176.772 182.391 168.669 186.521 165.563 190.973Z" fill="#47AD1D"/>
<path d="M118.101 199.953C119.585 199.779 123.043 197.783 125.007 191.194C126.972 184.606 130.374 187.461 131.83 189.712C133.53 190.799 137.85 192.729 141.528 191.752C146.011 190.561 146.501 191.999 147.769 195.716L147.867 196.003C148.242 197.1 148.486 198.282 148.744 199.534C149.412 202.768 150.175 206.463 153.534 210.325C157.263 214.61 153.814 218.164 151.624 219.405C150.967 220.239 148.681 221.704 144.802 220.888C143.489 220.611 142.31 220.203 141.122 219.791C137.925 218.683 134.668 217.555 128.576 218.933C121.892 220.444 113.91 214.145 110.754 210.807C109.068 208.507 108.177 203.117 118.101 199.953Z" fill="#47AD1D"/>
</g>
</svg>
