<svg width="14" height="15" viewBox="0 0 14 15" fill="none" xmlns="http://www.w3.org/2000/svg">
<g opacity="0.6">
<path fill-rule="evenodd" clip-rule="evenodd" d="M4.7236 7.49967C4.7236 8.74412 5.7423 9.75664 7.00002 9.75664C8.25205 9.75664 9.27075 8.74412 9.27075 7.49967C9.27075 6.24957 8.25205 5.23705 7.00002 5.23705C5.7423 5.23705 4.7236 6.24957 4.7236 7.49967ZM10.3464 4.02654C11.3423 4.79584 12.1903 5.92149 12.7992 7.32998C12.8447 7.43745 12.8447 7.5619 12.7992 7.66371C11.5813 10.4807 9.41303 12.1663 7.00002 12.1663H6.99433C4.58701 12.1663 2.41872 10.4807 1.20083 7.66371C1.1553 7.5619 1.1553 7.43745 1.20083 7.32998C2.41872 4.51301 4.58701 2.83301 6.99433 2.83301H7.00002C8.20652 2.83301 9.35043 3.25159 10.3464 4.02654ZM7.0007 8.90692C7.78038 8.90692 8.41778 8.27338 8.41778 7.49843C8.41778 6.71782 7.78038 6.08429 7.0007 6.08429C6.93241 6.08429 6.86412 6.08995 6.80152 6.10126C6.77875 6.72348 6.26656 7.22126 5.63485 7.22126H5.60639C5.58932 7.31176 5.57794 7.40227 5.57794 7.49843C5.57794 8.27338 6.21534 8.90692 7.0007 8.90692Z" fill="#333333"/>
</g>
</svg>
