<svg width="70" height="70" viewBox="0 0 70 70" fill="none" xmlns="http://www.w3.org/2000/svg">
<path d="M17.5193 39.71L17.5193 39.71C18.183 38.9187 19.0887 38.2569 20.2258 37.7196L20.3326 37.9456L20.2258 37.7196C21.3631 37.1822 22.4448 36.9072 23.4678 36.9072H63.363C64.0304 36.9072 64.5745 37.016 64.9584 37.2695C65.2048 37.4322 65.3738 37.647 65.4678 37.9044L65.5565 37.8102V38.4406C65.5565 38.9413 65.2943 39.4735 64.8407 40.028L17.5193 39.71ZM17.5193 39.71L17.5166 39.7133L6.73604 53.024L6.7359 53.0239L6.73031 53.0313C6.28236 53.6286 6.02031 54.1728 6.02031 54.6481C6.02031 55.1497 6.21637 55.5537 6.6184 55.8192C7.00225 56.0727 7.54633 56.1814 8.21371 56.1814H48.109C49.1329 56.1814 50.2211 55.8999 51.3704 55.3503C52.5194 54.8007 53.4204 54.1321 54.0605 53.3383L64.8399 40.029L17.5193 39.71ZM51.6291 32.7137H51.8791V32.4637V26.5967C51.8791 25.5533 51.5111 24.6584 50.7792 23.9265L50.6024 24.1032L50.7792 23.9265C50.0473 23.1946 49.1523 22.8266 48.1089 22.8266H26.988C26.0757 22.8266 25.3083 22.5101 24.6713 21.8731C24.0342 21.236 23.7178 20.4687 23.7178 19.5564V17.2096C23.7178 16.1662 23.3497 15.2713 22.6178 14.5394C21.8859 13.8075 20.991 13.4394 19.9476 13.4395H8.21371C7.17035 13.4395 6.27539 13.8075 5.5435 14.5394C4.8116 15.2713 4.44355 16.1663 4.44355 17.2097V48.4878V49.1918L4.88756 48.6455L14.273 37.0969C14.2733 37.0966 14.2736 37.0963 14.2738 37.0959C15.3229 35.8326 16.71 34.7843 18.4422 33.9542C20.1744 33.1242 21.8488 32.7137 23.4678 32.7137H51.6291ZM57.3021 55.9938L57.302 55.9939C56.2783 57.2556 54.8925 58.3036 53.1357 59.1339C51.3778 59.9647 49.7031 60.375 48.1089 60.375H8.21371C6.03211 60.375 4.16419 59.5954 2.59689 58.0281C1.0296 56.4608 0.25 54.5929 0.25 52.4113V17.2096C0.25 15.028 1.0296 13.1601 2.59689 11.5928C4.16419 10.0255 6.03211 9.24586 8.21371 9.24586H19.9477C22.1293 9.24586 23.9972 10.0255 25.5645 11.5928C27.1318 13.1601 27.9114 15.028 27.9114 17.2096V18.383V18.633H28.1614H48.109C50.2906 18.633 52.1585 19.4126 53.7258 20.9799C55.2931 22.5472 56.0727 24.4151 56.0727 26.5967V32.4637V32.7137H56.3227H63.363C64.6437 32.7137 65.8123 33.0038 66.8737 33.5816C67.9277 34.1554 68.7093 34.9781 69.2243 36.0547C69.5747 36.8027 69.75 37.597 69.75 38.4406C69.75 39.8891 69.2141 41.3023 68.1182 42.6845C68.1179 42.6848 68.1177 42.6852 68.1174 42.6855L57.3021 55.9938Z" fill="black" stroke="white" stroke-width="0.5"/>
</svg>
