<svg width="26" height="26" viewBox="0 0 26 26" fill="none" xmlns="http://www.w3.org/2000/svg">
<path d="M13.3756 13.8654C13.8536 13.8654 14.241 13.478 14.241 13C14.241 12.5221 13.8536 12.1346 13.3756 12.1346C12.8977 12.1346 12.5103 12.5221 12.5103 13C12.5103 13.478 12.8977 13.8654 13.3756 13.8654Z" fill="black" stroke="black" stroke-width="1.15385" stroke-linecap="round" stroke-linejoin="round"/>
<path d="M19.4333 13.8654C19.9112 13.8654 20.2986 13.478 20.2986 13C20.2986 12.5221 19.9112 12.1346 19.4333 12.1346C18.9553 12.1346 18.5679 12.5221 18.5679 13C18.5679 13.478 18.9553 13.8654 19.4333 13.8654Z" fill="black" stroke="black" stroke-width="1.15385" stroke-linecap="round" stroke-linejoin="round"/>
<path d="M7.31802 13.8654C7.79596 13.8654 8.18341 13.478 8.18341 13C8.18341 12.5221 7.79596 12.1346 7.31802 12.1346C6.84008 12.1346 6.45264 12.5221 6.45264 13C6.45264 13.478 6.84008 13.8654 7.31802 13.8654Z" fill="black" stroke="black" stroke-width="1.15385" stroke-linecap="round" stroke-linejoin="round"/>
</svg>
