<svg width="18" height="18" viewBox="0 0 18 18" fill="none" xmlns="http://www.w3.org/2000/svg">
<path fill-rule="evenodd" clip-rule="evenodd" d="M9 0.000976562C6.55575 0.000976562 6.24937 0.0114755 5.28937 0.0549755C4.33124 0.0988505 3.67687 0.251099 3.10462 0.473475C2.51287 0.703349 2.01075 1.01123 1.51087 1.51148C1.01025 2.01173 0.702379 2.51385 0.472504 3.1056C0.250129 3.67823 0.0975047 4.33222 0.0540047 5.29035C0.0105047 6.25035 0 6.55673 0 9.00098C0 11.4452 0.0105047 11.7516 0.0540047 12.7116C0.0978797 13.6697 0.250129 14.3241 0.472504 14.8963C0.702379 15.4881 1.01026 15.9902 1.51051 16.4901C2.01076 16.9907 2.51287 17.2986 3.10462 17.5289C3.67725 17.7509 4.33124 17.9031 5.28937 17.947C6.24937 17.9905 6.55575 18.001 9 18.001C11.4443 18.001 11.7506 17.9905 12.7106 17.947C13.6688 17.9031 14.3231 17.7509 14.8954 17.5285C15.4871 17.2986 15.9893 16.9907 16.4891 16.4905C16.9898 15.9902 17.2976 15.4881 17.5279 14.8963C17.7499 14.3237 17.9021 13.6697 17.946 12.7116C17.9895 11.7516 18 11.4452 18 9.00098C18 6.55673 17.9895 6.25035 17.946 5.29035C17.9021 4.33222 17.7499 3.67785 17.5275 3.1056C17.2976 2.51385 16.9897 2.01173 16.4895 1.51185C15.9892 1.01123 15.4871 0.703349 14.8954 0.473475C14.3228 0.251099 13.6688 0.0984755 12.7106 0.0549755C11.7506 0.0114755 11.4443 0.000976562 9 0.000976562ZM9 1.62248C11.403 1.62248 11.6876 1.63185 12.6367 1.67498C13.5142 1.7151 13.9905 1.86173 14.3081 1.9851C14.7281 2.14823 15.0281 2.34323 15.3431 2.65823C15.6577 2.97323 15.8527 3.27322 16.0159 3.69322C16.1396 4.0101 16.2859 4.48673 16.326 5.36423C16.3691 6.31298 16.3785 6.59798 16.3785 9.00098C16.3785 11.404 16.3691 11.6886 16.326 12.6377C16.2859 13.5152 16.1392 13.9915 16.0159 14.3091C15.8527 14.7291 15.6578 15.0291 15.3428 15.3441C15.0278 15.6587 14.7277 15.8537 14.3077 16.0169C13.9909 16.1406 13.5142 16.2868 12.6367 16.327C11.688 16.3701 11.403 16.3795 9 16.3795C6.59662 16.3795 6.312 16.3701 5.36325 16.327C4.48575 16.2868 4.0095 16.1402 3.69188 16.0169C3.27188 15.8537 2.97187 15.6587 2.65687 15.3437C2.34225 15.0287 2.14724 14.7287 1.98412 14.3087C1.86037 13.9919 1.71412 13.5152 1.674 12.6377C1.63087 11.689 1.6215 11.404 1.6215 9.00098C1.6215 6.59798 1.63087 6.31335 1.674 5.36423C1.71412 4.48673 1.86074 4.01048 1.98412 3.69285C2.14724 3.27285 2.34225 2.97285 2.65725 2.65785C2.97225 2.34323 3.27225 2.14823 3.69225 1.9851C4.00913 1.86135 4.48575 1.7151 5.36325 1.67498C6.312 1.63185 6.597 1.62248 9 1.62248ZM9 4.37947C6.44737 4.37947 4.3785 6.44835 4.3785 9.00098C4.3785 11.5536 6.44737 13.6225 9 13.6225C11.5526 13.6225 13.6215 11.5536 13.6215 9.00098C13.6215 6.44835 11.5526 4.37947 9 4.37947ZM9 12.001C8.20435 12.001 7.44129 11.6849 6.87868 11.1223C6.31607 10.5597 6 9.79663 6 9.00098C6 8.20533 6.31607 7.44226 6.87868 6.87965C7.44129 6.31704 8.20435 6.00098 9 6.00098C9.79565 6.00098 10.5587 6.31704 11.1213 6.87965C11.6839 7.44226 12 8.20533 12 9.00098C12 9.79663 11.6839 10.5597 11.1213 11.1223C10.5587 11.6849 9.79565 12.001 9 12.001ZM14.8841 4.19685C14.8841 4.48328 14.7703 4.75799 14.5678 4.96053C14.3653 5.16306 14.0905 5.27685 13.8041 5.27685C13.5177 5.27685 13.243 5.16306 13.0405 4.96053C12.8379 4.75799 12.7241 4.48328 12.7241 4.19685C12.7241 3.91042 12.8379 3.63571 13.0405 3.43317C13.243 3.23063 13.5177 3.11685 13.8041 3.11685C14.0905 3.11685 14.3653 3.23063 14.5678 3.43317C14.7703 3.63571 14.8841 3.91042 14.8841 4.19685Z" fill="black"/>
</svg>
