<svg width="24" height="25" viewBox="0 0 24 25" fill="none" xmlns="http://www.w3.org/2000/svg">
<path d="M12.0004 7.62305C10.9848 7.62305 9.99201 7.9242 9.14758 8.48843C8.30315 9.05266 7.645 9.85462 7.25635 10.7929C6.8677 11.7312 6.76602 12.7636 6.96415 13.7597C7.16228 14.7558 7.65133 15.6707 8.36946 16.3889C9.08758 17.107 10.0025 17.596 10.9986 17.7942C11.9947 17.9923 13.0271 17.8906 13.9654 17.502C14.9037 17.1133 15.7056 16.4552 16.2699 15.6107C16.8341 14.7663 17.1353 13.7735 17.1353 12.7579C17.1353 12.0836 17.0025 11.4159 16.7444 10.7929C16.4864 10.1699 16.1081 9.60381 15.6313 9.12699C15.1545 8.65017 14.5884 8.27194 13.9654 8.01389C13.3424 7.75584 12.6747 7.62303 12.0004 7.62305ZM12.0004 16.0915C11.341 16.0915 10.6965 15.896 10.1483 15.5297C9.60011 15.1634 9.17284 14.6427 8.92053 14.0336C8.66822 13.4245 8.60221 12.7542 8.73084 12.1075C8.85947 11.4609 9.17697 10.8669 9.64318 10.4007C10.1094 9.93447 10.7034 9.61698 11.35 9.48836C11.9967 9.35973 12.667 9.42575 13.2761 9.67807C13.8853 9.93039 14.4059 10.3577 14.7722 10.9059C15.1385 11.4541 15.334 12.0986 15.334 12.7579C15.334 13.1957 15.2478 13.6292 15.0803 14.0337C14.9128 14.4382 14.6673 14.8057 14.3577 15.1153C14.0481 15.4248 13.6806 15.6704 13.2761 15.8379C12.8717 16.0054 12.4382 16.0916 12.0004 16.0915Z" fill="white"/>
<path d="M21.9398 8.635C21.9234 7.80546 21.7664 6.98472 21.4754 6.20774C21.2238 5.54063 20.8302 4.93618 20.3219 4.43628C19.8227 3.92742 19.2184 3.53376 18.5513 3.28281C17.7743 2.9916 16.9535 2.83454 16.124 2.81835C15.0577 2.76981 14.7169 2.75781 12.0012 2.75781C9.28552 2.75781 8.94439 2.76907 7.87755 2.81835C7.04801 2.83474 6.22728 2.99179 5.4503 3.28281C4.78299 3.53399 4.17847 3.92762 3.67884 4.43628C3.1697 4.93552 2.77602 5.54016 2.52544 6.20774C2.23442 6.98473 2.07737 7.80547 2.06098 8.635C2.01169 9.70122 2.00037 10.0421 2.00037 12.7578C2.00037 15.4735 2.01169 15.8143 2.06096 16.8806C2.07736 17.7101 2.23441 18.5309 2.52544 19.3079C2.77609 19.9754 3.16976 20.5801 3.67884 21.0793C4.17872 21.5877 4.78317 21.9813 5.4503 22.2327C6.2273 22.5237 7.04802 22.6807 7.87755 22.6972C8.94439 22.7457 9.28469 22.7578 12.0004 22.7578C14.716 22.7578 15.0569 22.7465 16.1232 22.6972C16.9527 22.6808 17.7735 22.5238 18.5504 22.2327C19.2148 21.9759 19.8182 21.583 20.3219 21.0793C20.8256 20.5756 21.2185 19.9723 21.4754 19.3079C21.7667 18.531 21.9238 17.7102 21.9398 16.8806C21.9883 15.8136 21.9996 15.4735 21.9996 12.7578C21.9996 10.0421 21.9883 9.70122 21.9398 8.635ZM20.1408 16.7991C20.1331 17.4332 20.0168 18.0613 19.7968 18.6561C19.6304 19.0874 19.3755 19.479 19.0486 19.8058C18.7216 20.1326 18.3299 20.3873 17.8986 20.5536C17.3039 20.774 16.6757 20.8904 16.0415 20.8976C14.9874 20.946 14.6708 20.9557 12.0003 20.9557C9.3298 20.9557 9.01408 20.946 7.96031 20.8976C7.32613 20.8903 6.69793 20.7739 6.10323 20.5536C5.66887 20.393 5.27588 20.1375 4.95299 19.8056C4.62058 19.4834 4.36493 19.0906 4.20499 18.6562C3.98451 18.0615 3.86814 17.4333 3.86099 16.7991C3.81249 15.745 3.80284 15.4284 3.80284 12.7579C3.80284 10.0874 3.81333 9.77165 3.86099 8.71668C3.86898 8.0826 3.98532 7.45455 4.20499 6.85968C4.3655 6.42532 4.62106 6.03233 4.95299 5.70944C5.27532 5.37684 5.66847 5.12117 6.10323 4.96144C6.69791 4.74099 7.32612 4.62463 7.96031 4.61744C9.01438 4.56895 9.33099 4.55929 12.0003 4.55929C14.6696 4.55929 14.9865 4.56978 16.0415 4.61744C16.6756 4.62543 17.3037 4.74177 17.8986 4.96144C18.33 5.12769 18.7219 5.38251 19.0488 5.70946C19.3758 6.03641 19.6306 6.42824 19.7968 6.85969C20.0173 7.45435 20.1336 8.08253 20.1408 8.71669C20.1893 9.77169 20.199 10.0874 20.199 12.7579C20.199 15.4284 20.1893 15.7441 20.1408 16.7991Z" fill="white"/>
<path d="M17.3389 6.2207C17.0207 6.22076 16.7152 6.34721 16.4902 6.57223C16.2652 6.79725 16.1389 7.10242 16.1389 7.4206C16.1389 7.73879 16.2654 8.04393 16.4904 8.26891C16.7154 8.49389 17.0205 8.62028 17.3387 8.62028C17.6569 8.62028 17.962 8.49389 18.187 8.26891C18.412 8.04393 18.5385 7.73879 18.5385 7.4206C18.5385 7.10242 18.4122 6.79725 18.1872 6.57223C17.9622 6.34721 17.6571 6.22076 17.3389 6.2207Z" fill="white"/>
</svg>
