<svg width="24" height="24" viewBox="0 0 24 24" fill="none" xmlns="http://www.w3.org/2000/svg">
<g opacity="0.6">
<path d="M10.269 6C8.66704 6 8.09554 6.1095 7.50904 6.4245C7.03804 6.6765 6.67654 7.038 6.42454 7.509C6.10954 8.0955 6.00004 8.667 6.00004 10.269V16.731C6.00004 18.333 6.10954 18.9045 6.42454 19.491C6.67654 19.962 7.03804 20.3235 7.50904 20.5755C8.09554 20.8905 8.66704 21 10.269 21H13.731C15.333 21 15.9045 20.8905 16.491 20.5755C16.962 20.3235 17.3235 19.962 17.5755 19.491C17.8905 18.9045 18 18.333 18 16.731V10.269C18 8.667 17.8905 8.0955 17.5755 7.509C17.3319 7.04626 16.9538 6.66817 16.491 6.4245C15.9045 6.1095 15.333 6 13.731 6H10.269ZM10.269 4.5H13.731C15.7365 4.5 16.464 4.71 17.1975 5.1C17.9325 5.493 18.507 6.069 18.8985 6.8025C19.2915 7.536 19.5 8.2635 19.5 10.2675V16.7325C19.5 18.7365 19.29 19.464 18.9 20.1975C18.516 20.9224 17.9228 21.5151 17.1975 21.8985C16.464 22.2915 15.7365 22.5 13.7325 22.5H10.2675C8.26354 22.5 7.53604 22.29 6.80254 21.9C6.07681 21.5158 5.48357 20.9221 5.10004 20.196C4.70704 19.4625 4.49854 18.735 4.49854 16.731V10.266C4.49854 8.262 4.70853 7.5345 5.09854 6.801C5.48335 6.07562 6.07764 5.48289 6.80403 5.1C7.53604 4.7085 8.26354 4.5 10.2675 4.5H10.269Z" fill="#89B5AB"/>
<path d="M12.75 5.25C12.75 5.44891 12.671 5.63968 12.5303 5.78033C12.3897 5.92098 12.1989 6 12 6C11.8011 6 11.6103 5.92098 11.4697 5.78033C11.329 5.63968 11.25 5.44891 11.25 5.25V3.75C11.25 3.55109 11.171 3.36032 11.0303 3.21967C10.8897 3.07902 10.6989 3 10.5 3H8.25C8.05109 3 7.86032 2.92098 7.71967 2.78033C7.57902 2.63968 7.5 2.44891 7.5 2.25C7.5 2.05109 7.57902 1.86032 7.71967 1.71967C7.86032 1.57902 8.05109 1.5 8.25 1.5H10.5C11.0967 1.5 11.669 1.73705 12.091 2.15901C12.5129 2.58097 12.75 3.15326 12.75 3.75V5.25Z" fill="#89B5AB"/>
</g>
<path d="M12.75 8.25C12.75 7.75 12.5 7.5 12 7.5C11.5 7.5 11.25 7.75 11.25 8.25V11.25C11.25 11.75 11.5 12 12 12C12.5 12 12.75 11.75 12.75 11.25V8.25Z" fill="#333333"/>
</svg>
