<svg width="146" height="69" viewBox="0 0 146 69" fill="none" xmlns="http://www.w3.org/2000/svg">
<path d="M11.6583 12.6522L5.97887 17.1933C4.96317 18.0055 4.37186 19.2354 4.37186 20.5358V20.5358C4.37186 21.5578 4.00614 22.546 3.34085 23.3218L1.76031 25.1648C0.76715 26.3229 0.833502 28.0505 1.91256 29.129L5.96541 33.1797C7.14165 34.3553 9.00317 34.4876 10.3338 33.4901L11.8466 32.3561C13.1281 31.3955 14.7323 30.9696 16.3215 31.1682V31.1682C18.4103 31.4292 20.4885 30.6093 21.8366 28.9925L26.9598 22.8478M27.6884 28.6739L33.876 35.9826C35.0471 37.3659 36.7153 38.2332 38.5203 38.3972V38.3972C41.5958 38.6767 44.1116 40.9646 44.681 43.9997L47.6012 59.5659C47.8643 60.9686 46.8702 62.2959 45.4501 62.4378L43.5792 62.6248C41.867 62.7959 40.383 63.884 39.7049 65.4655V65.4655C39.1905 66.6652 40.0705 68 41.3758 68H49.8145C52.5346 68 54.7889 65.8911 54.9699 63.1769L56.3984 41.7617C56.6844 37.473 55.9028 33.1803 54.1234 29.2678L53.191 27.2174M96.1809 24.3043L99.8336 32.0115C101.738 36.0288 104.654 39.4814 108.297 42.03L113.81 45.8869C116.046 47.4512 117.541 49.865 117.946 52.5635L118.825 58.4219C119.191 60.8597 117.442 63.1076 114.989 63.3527V63.3527C113.299 63.5217 111.865 64.6676 111.328 66.2793L111.287 66.4013C111.025 67.1877 111.61 68 112.439 68H120.213C123.439 68 126.055 65.3842 126.055 62.1574V52.2705C126.055 48.8006 124.77 45.4535 122.448 42.875V42.875C120.527 40.7416 119.306 38.0706 118.95 35.2219L117.312 22.1196M122.412 35.2283L126.957 44.7272C129.226 49.4685 132.763 53.4892 137.177 56.3435L140.919 58.7637C141.955 59.4338 143.34 59.1123 143.975 58.0545V58.0545C144.556 57.0876 144.304 55.8377 143.395 55.1711L140.4 52.9763C136.263 49.9443 133.06 45.8126 131.154 41.0509L125.681 27.3738C121.765 17.5905 113.683 10.0691 103.643 6.8667L94.7346 4.02501C88.4715 2.02718 81.8811 1.2591 75.3264 1.76305L66.3065 2.45652L53.8976 3.6377C52.0073 3.81764 50.1044 3.46298 48.4058 2.61412V2.61412M18.2161 9.73913L22.7225 7.31389C25.9951 5.55264 29.6072 4.51345 33.3154 4.26637L36.6598 4.04353C37.9552 3.95721 39.2253 3.64334 40.4117 3.11629L41.876 2.46585C43.9655 1.53765 46.3606 1.59204 48.4058 2.61412V2.61412M13.8442 17.0217L12.0783 14.9625C10.6598 13.3085 10.9125 10.8044 12.6328 9.46712V9.46712C14.4393 8.06274 17.0672 8.55365 18.245 10.5155L20.402 14.1087M34.2462 22.8478L34.4274 19.95C34.7778 14.3471 32.8765 8.83619 29.1457 4.6413V4.6413M43.7186 33.0435L44.8427 23.6812C45.5309 17.9486 44.2915 12.15 41.3198 7.19972L39.3467 3.91304M53.191 22.1196L53.4509 17.443C53.7516 12.0334 51.9432 6.71793 48.4058 2.61412V2.61412M59.0201 6.82609L62.266 15.3421C63.9559 19.7758 64.4003 24.5874 63.5511 29.2556L61.9347 38.1413M71.407 35.2283L72.3485 22.5251C72.6864 17.9659 71.8162 13.3982 69.8256 9.28258L66.6002 2.61412M76.5075 5.36957L79.4387 13.7399C80.8626 17.806 81.2537 22.1623 80.577 26.4171L78.5 39.4756M88.1658 34.5L89.6409 21.7232C90.1082 17.6746 89.6173 13.5729 88.2078 9.74892L85.2513 1.72826M93.995 3.91304L94.9233 6.46472C96.2314 10.0599 96.7299 13.8994 96.3833 17.7093L96.1809 19.9348M102.739 24.3043L103.618 20.4943C104.479 16.7686 104.507 12.8991 103.7 9.16137L103.146 6.59479M111.482 10.4674L111.703 13.5526C112.036 18.207 111.109 22.8652 109.022 27.0384L107.111 30.8587M60.4774 38.1413L77.4656 39.399C79.2509 39.5312 81.0452 39.4786 82.8197 39.2422L102.01 36.6848" stroke="black" stroke-width="1.8" stroke-linecap="round"/>
<path opacity="0.7" d="M80.8794 41.7825V44.8502C80.8794 46.1896 81.1516 47.5151 81.6794 48.7461V48.7461C82.5758 50.8366 82.7239 53.1723 82.0987 55.3593L80.6776 60.3307C80.3595 61.4434 79.3948 62.2493 78.2434 62.3644L75.939 62.5947C74.0098 62.7875 72.2929 63.9014 71.3306 65.5846V65.5846C70.7154 66.6607 71.4923 67.9999 72.7318 67.9999H81.0805C82.7553 67.9999 84.2985 67.092 85.1122 65.6282L89.4454 57.8325C90.5107 55.9161 90.9741 53.7233 90.7755 51.5398V51.5398C90.5049 48.5643 91.4656 45.608 93.4336 43.36L95.4522 41.0542" stroke="black" stroke-width="1.8" stroke-linecap="round"/>
<path opacity="0.7" d="M28.4171 34.5V34.5C28.4171 38.2303 26.9348 41.8077 24.2964 44.4447L17.9159 50.8217C15.6187 53.1178 15.4774 56.7957 17.5918 59.2612L20.5894 62.7565C21.5109 63.8311 23.24 63.5664 23.7979 62.2653V62.2653C24.4125 60.8319 24.3188 59.1931 23.5446 57.8391L22.5117 56.0323C22.1444 55.3899 22.3373 54.5728 22.9531 54.1625L23.8598 53.5584C23.9825 53.4766 24.1184 53.4165 24.2615 53.3808L31.1215 51.6666C32.2169 51.3929 33.2298 50.8584 34.0738 50.1085L36.9117 47.5873C38.5203 46.1582 39.8414 44.4352 40.804 42.5109V42.5109" stroke="black" stroke-width="1.8" stroke-linecap="round"/>
<path d="M8 22.1328C8 21.1328 9.2 20.4328 10 21.6328" stroke="black" stroke-width="1.8" stroke-linecap="round"/>
</svg>
