<svg width="18" height="15" viewBox="0 0 18 15" fill="none" xmlns="http://www.w3.org/2000/svg">
<path d="M10.2819 6.31413C10.8611 6.22262 11.9036 5.54545 11.4403 3.56886C10.9769 1.59226 9.89582 0.366037 9.41318 0C9.07533 0.549055 8.42859 2.0315 8.54443 3.56886C8.68922 5.49055 8.83399 6.31413 10.2819 6.31413Z" fill="#FF4242"/>
<path d="M6.22774 6.58866C6.71038 6.45139 7.58879 5.76508 7.24129 4.11791C6.89378 2.47075 5.84161 1.41839 5.35896 1.09811C4.73152 1.5099 3.62145 2.80018 4.20062 4.66697C4.77979 6.53375 5.79335 6.72592 6.22774 6.58866Z" fill="#FF4242"/>
<path d="M14.7705 9.19667C15.3979 9.37969 16.8265 9.36138 17.5215 7.82403C18.2165 6.28668 18.0042 5.07876 17.8111 4.66697C17.0872 4.62121 15.4076 4.94149 14.4809 6.58866C13.5543 8.23582 14.2879 9.01365 14.7705 9.19667Z" fill="#FF4242"/>
<path d="M3.33189 8.09856C3.67939 8.86724 3.47668 9.51695 3.33189 9.74572C2.84925 9.97449 1.6523 10.185 0.725622 9.19667C-0.201052 8.20837 -0.0466061 6.77168 0.146452 6.17687C1.44958 6.0396 2.89751 7.13771 3.33189 8.09856Z" fill="#FF4242"/>
<path d="M12.4538 11.6674C12.1642 11.5759 11.5561 11.0635 11.4403 9.74572C11.3244 8.42799 10.5233 8.83063 10.1371 9.19667C9.75104 9.33393 8.80506 9.5261 8.11005 9.19667C7.26281 8.79508 7.10413 9.04622 6.6939 9.69547L6.66212 9.74572C6.54093 9.93721 6.44228 10.1501 6.33786 10.3753C6.06805 10.9575 5.75977 11.6227 4.92461 12.2165C3.99794 12.8753 4.5385 13.6806 4.92461 14.0009C5.02114 14.1839 5.4169 14.55 6.22774 14.55C6.50223 14.55 6.75548 14.5197 7.0105 14.4893C7.69714 14.4074 8.3966 14.324 9.55798 14.8245C10.8322 15.3735 12.6952 14.5042 13.4674 14.0009C13.9018 13.6349 14.3072 12.6557 12.4538 11.6674Z" fill="#FF4242"/>
</svg>
