<svg width="90" height="90" viewBox="0 0 90 90" fill="none" xmlns="http://www.w3.org/2000/svg">
<path d="M36.9912 41.1985C38.3855 40.7684 40.9232 38.618 39.9193 33.4569C39.1282 29.3897 37.0729 26.48 35.5548 24.9381C34.9542 24.3281 34.0002 24.3197 33.4136 24.9431C31.6797 26.7855 29.7605 30.3717 31.1351 35.1772C32.8083 41.0265 35.7363 41.6286 36.9912 41.1985Z" fill="#FF4242"/>
<path d="M61.6703 49.3703C63.4829 49.9438 67.61 49.8864 69.6178 45.0694C71.193 41.2903 71.1548 38.1465 70.7959 36.3441C70.6497 35.6102 69.9828 35.1307 69.2388 35.211C66.845 35.4692 63.0763 36.8752 60.8338 41.1985C58.1567 46.3596 60.276 48.7968 61.6703 49.3703Z" fill="#FF4242"/>
<path d="M28.6255 45.9296C29.6294 48.3381 29.0437 50.3738 28.6255 51.0907C27.2312 51.8075 23.7733 52.467 21.0962 49.3703C18.9172 46.8497 18.8074 43.3982 19.1428 41.1962C19.2633 40.405 19.9439 39.8227 20.7397 39.9076C24.1153 40.2676 27.5156 43.2668 28.6255 45.9296Z" fill="#FF4242"/>
<path d="M54.9777 57.112C54.1412 56.8252 52.3843 55.2196 52.0497 51.0907C51.7151 46.9618 49.4005 48.2234 48.2851 49.3703C47.1697 49.8004 44.4368 50.4025 42.429 49.3703C39.9815 48.112 39.523 48.8989 38.3379 50.9332L38.2461 51.0907C37.896 51.6907 37.611 52.3576 37.3094 53.0635C36.5299 54.8876 35.6393 56.9718 33.2266 58.8323C30.5496 60.8968 32.1112 63.42 33.2266 64.4236C33.5055 64.997 34.6488 66.1439 36.9912 66.1439C37.7842 66.1439 38.5158 66.0493 39.2526 65.954C41.2362 65.6974 43.2568 65.436 46.6119 67.0041C50.2929 68.7245 55.6749 66.0006 57.9058 64.4236C59.1606 63.2766 60.3318 60.2086 54.9777 57.112Z" fill="#FF4242"/>
<path d="M50.8638 40.9671C52.5513 41.1516 56.0304 39.9398 56.4467 33.6172C56.6943 29.8577 56.1066 26.7239 55.3739 24.4885C54.7938 22.7186 52.6973 22.4821 51.6485 24.0213C50.3593 25.9136 49.0069 28.4755 48.4036 31.3165C47.1498 37.2206 46.8422 39.8167 50.8638 40.9671Z" fill="#FF4242"/>
</svg>
