<svg width="139" height="26" viewBox="0 0 139 26" fill="none" xmlns="http://www.w3.org/2000/svg">
<g opacity="0.5">
<mask id="path-1-outside-1_840_15079" maskUnits="userSpaceOnUse" x="0" y="0" width="139" height="26" fill="black">
<rect fill="white" width="139" height="26"/>
<path d="M1.17217 24.6901H6.44046V23.1406C8.02439 24.3113 10.1248 25 12.0531 25C16.4261 25 19.7317 21.9354 19.7317 17.9067C19.7317 15.6341 18.5954 13.7403 17.7001 12.8451C14.9799 10.1248 9.91822 8.74749 8.85079 7.68006C8.60976 7.43902 8.43759 7.02583 8.43759 6.64706C8.43759 5.75179 9.09182 5.20086 10.1593 5.20086C11.7088 5.20086 12.7418 5.99283 13.4304 7.64562L13.5337 7.95552H18.802V1.3099H13.5337V2.7561C12.1564 1.6198 10.3314 1 8.33429 1C3.96126 1 1 3.78909 1 7.92109C1 9.78049 1.65423 11.33 3.13486 12.8106C5.64849 15.3242 9.78049 15.9785 11.2956 17.4935C11.7432 17.9412 11.8809 18.2855 11.8809 18.7331C11.8809 19.6628 11.1578 20.2482 10.0215 20.2482C8.26542 20.2482 7.16356 19.3185 6.44046 17.1836H1.17217V24.6901Z"/>
<path d="M18.901 24.6901H28.1635V19.5595H26.2353L27.2338 16.6327H33.2252L34.1205 19.5595H32.0889V24.6901H44.3127V19.0775H42.5911L38.1148 6.92252H40.0086V1.3099H23.1707V6.92252H25.0645L20.6571 19.0775H18.901V24.6901ZM28.1635 13.7059L30.2984 7.23242H30.3673L32.33 13.7059H28.1635Z"/>
<path d="M43.5433 24.6901H65.8216V15.3242H60.209V19.0775H54.6997V6.92252H56.9034V1.3099H43.5433V6.92252H45.6437V19.0775H43.5433V24.6901Z"/>
<path d="M69.09 24.8967H76.3898L83.4142 6.92252H85.1359V1.3099H75.7011V6.92252H77.6294L74.0139 16.8737H73.9451L70.5017 6.92252H72.4644V1.3099H59.8963V6.92252H61.6524L69.09 24.8967Z"/>
<path d="M84.512 24.6901H106.825V17.2181H100.696V19.0775H95.3929V15.2554H100.007V10.5036H95.3929V6.92252H100.696V8.78192H106.825V1.3099H84.512V6.92252H86.3369V19.0775H84.512V24.6901Z"/>
<path d="M106.51 24.6901H120.076V19.7661H117.597L121.557 15.8752L125.861 19.7661H123.416V24.6901H138.049V19.0775H135.707L127.34 12.1908L133.676 6.92252H137.153V1.3099H123.344V6.23386H125.341L121.898 9.64275L117.973 6.23386H120.28V1.3099H106.647V6.92252H109.127L116.805 13.1205L109.127 19.0775H106.51V24.6901Z"/>
</mask>
<path d="M1.17217 24.6901H6.44046V23.1406C8.02439 24.3113 10.1248 25 12.0531 25C16.4261 25 19.7317 21.9354 19.7317 17.9067C19.7317 15.6341 18.5954 13.7403 17.7001 12.8451C14.9799 10.1248 9.91822 8.74749 8.85079 7.68006C8.60976 7.43902 8.43759 7.02583 8.43759 6.64706C8.43759 5.75179 9.09182 5.20086 10.1593 5.20086C11.7088 5.20086 12.7418 5.99283 13.4304 7.64562L13.5337 7.95552H18.802V1.3099H13.5337V2.7561C12.1564 1.6198 10.3314 1 8.33429 1C3.96126 1 1 3.78909 1 7.92109C1 9.78049 1.65423 11.33 3.13486 12.8106C5.64849 15.3242 9.78049 15.9785 11.2956 17.4935C11.7432 17.9412 11.8809 18.2855 11.8809 18.7331C11.8809 19.6628 11.1578 20.2482 10.0215 20.2482C8.26542 20.2482 7.16356 19.3185 6.44046 17.1836H1.17217V24.6901Z" fill="black" fill-opacity="0.2"/>
<path d="M18.901 24.6901H28.1635V19.5595H26.2353L27.2338 16.6327H33.2252L34.1205 19.5595H32.0889V24.6901H44.3127V19.0775H42.5911L38.1148 6.92252H40.0086V1.3099H23.1707V6.92252H25.0645L20.6571 19.0775H18.901V24.6901ZM28.1635 13.7059L30.2984 7.23242H30.3673L32.33 13.7059H28.1635Z" fill="black" fill-opacity="0.2"/>
<path d="M43.5433 24.6901H65.8216V15.3242H60.209V19.0775H54.6997V6.92252H56.9034V1.3099H43.5433V6.92252H45.6437V19.0775H43.5433V24.6901Z" fill="black" fill-opacity="0.2"/>
<path d="M69.09 24.8967H76.3898L83.4142 6.92252H85.1359V1.3099H75.7011V6.92252H77.6294L74.0139 16.8737H73.9451L70.5017 6.92252H72.4644V1.3099H59.8963V6.92252H61.6524L69.09 24.8967Z" fill="black" fill-opacity="0.2"/>
<path d="M84.512 24.6901H106.825V17.2181H100.696V19.0775H95.3929V15.2554H100.007V10.5036H95.3929V6.92252H100.696V8.78192H106.825V1.3099H84.512V6.92252H86.3369V19.0775H84.512V24.6901Z" fill="black" fill-opacity="0.2"/>
<path d="M106.51 24.6901H120.076V19.7661H117.597L121.557 15.8752L125.861 19.7661H123.416V24.6901H138.049V19.0775H135.707L127.34 12.1908L133.676 6.92252H137.153V1.3099H123.344V6.23386H125.341L121.898 9.64275L117.973 6.23386H120.28V1.3099H106.647V6.92252H109.127L116.805 13.1205L109.127 19.0775H106.51V24.6901Z" fill="black" fill-opacity="0.2"/>
<path d="M1.17217 24.6901H6.44046V23.1406C8.02439 24.3113 10.1248 25 12.0531 25C16.4261 25 19.7317 21.9354 19.7317 17.9067C19.7317 15.6341 18.5954 13.7403 17.7001 12.8451C14.9799 10.1248 9.91822 8.74749 8.85079 7.68006C8.60976 7.43902 8.43759 7.02583 8.43759 6.64706C8.43759 5.75179 9.09182 5.20086 10.1593 5.20086C11.7088 5.20086 12.7418 5.99283 13.4304 7.64562L13.5337 7.95552H18.802V1.3099H13.5337V2.7561C12.1564 1.6198 10.3314 1 8.33429 1C3.96126 1 1 3.78909 1 7.92109C1 9.78049 1.65423 11.33 3.13486 12.8106C5.64849 15.3242 9.78049 15.9785 11.2956 17.4935C11.7432 17.9412 11.8809 18.2855 11.8809 18.7331C11.8809 19.6628 11.1578 20.2482 10.0215 20.2482C8.26542 20.2482 7.16356 19.3185 6.44046 17.1836H1.17217V24.6901Z" stroke="black" stroke-width="1.6" mask="url(#path-1-outside-1_840_15079)"/>
<path d="M18.901 24.6901H28.1635V19.5595H26.2353L27.2338 16.6327H33.2252L34.1205 19.5595H32.0889V24.6901H44.3127V19.0775H42.5911L38.1148 6.92252H40.0086V1.3099H23.1707V6.92252H25.0645L20.6571 19.0775H18.901V24.6901ZM28.1635 13.7059L30.2984 7.23242H30.3673L32.33 13.7059H28.1635Z" stroke="black" stroke-width="1.6" mask="url(#path-1-outside-1_840_15079)"/>
<path d="M43.5433 24.6901H65.8216V15.3242H60.209V19.0775H54.6997V6.92252H56.9034V1.3099H43.5433V6.92252H45.6437V19.0775H43.5433V24.6901Z" stroke="black" stroke-width="1.6" mask="url(#path-1-outside-1_840_15079)"/>
<path d="M69.09 24.8967H76.3898L83.4142 6.92252H85.1359V1.3099H75.7011V6.92252H77.6294L74.0139 16.8737H73.9451L70.5017 6.92252H72.4644V1.3099H59.8963V6.92252H61.6524L69.09 24.8967Z" stroke="black" stroke-width="1.6" mask="url(#path-1-outside-1_840_15079)"/>
<path d="M84.512 24.6901H106.825V17.2181H100.696V19.0775H95.3929V15.2554H100.007V10.5036H95.3929V6.92252H100.696V8.78192H106.825V1.3099H84.512V6.92252H86.3369V19.0775H84.512V24.6901Z" stroke="black" stroke-width="1.6" mask="url(#path-1-outside-1_840_15079)"/>
<path d="M106.51 24.6901H120.076V19.7661H117.597L121.557 15.8752L125.861 19.7661H123.416V24.6901H138.049V19.0775H135.707L127.34 12.1908L133.676 6.92252H137.153V1.3099H123.344V6.23386H125.341L121.898 9.64275L117.973 6.23386H120.28V1.3099H106.647V6.92252H109.127L116.805 13.1205L109.127 19.0775H106.51V24.6901Z" stroke="black" stroke-width="1.6" mask="url(#path-1-outside-1_840_15079)"/>
</g>
</svg>
