<svg width="24" height="25" viewBox="0 0 24 25" fill="none" xmlns="http://www.w3.org/2000/svg">
<path d="M22 6.55335C21.2511 6.88533 20.4565 7.10308 19.643 7.19935C20.5002 6.6868 21.1417 5.87999 21.448 4.92935C20.6426 5.40782 19.7612 5.7447 18.842 5.92535C18.2788 5.32578 17.5484 4.90924 16.7456 4.72976C15.9429 4.55028 15.1046 4.61613 14.3397 4.91878C13.5748 5.22143 12.9185 5.74691 12.4558 6.42708C11.9931 7.10725 11.7455 7.91074 11.745 8.73335C11.7444 9.04799 11.7797 9.36167 11.85 9.66835C10.2188 9.58646 8.62297 9.16247 7.16619 8.42392C5.70942 7.68537 4.42422 6.64875 3.394 5.38135C2.86926 6.28471 2.7085 7.35408 2.94444 8.37179C3.18038 9.3895 3.79529 10.279 4.664 10.8594C4.01193 10.8394 3.37413 10.6635 2.804 10.3464V10.3984C2.80416 11.3458 3.13206 12.2641 3.73208 12.9973C4.3321 13.7306 5.1673 14.2337 6.096 14.4214C5.74368 14.5171 5.38011 14.5652 5.015 14.5644C4.75565 14.5645 4.49686 14.5404 4.242 14.4924C4.50405 15.3075 5.01426 16.0204 5.70132 16.5314C6.38837 17.0424 7.21792 17.3259 8.074 17.3424C6.35342 18.689 4.16942 19.2992 2 19.0394C3.87605 20.2454 6.05975 20.8855 8.29 20.8834C9.82577 20.8937 11.3483 20.5989 12.7692 20.0159C14.19 19.4329 15.4809 18.5735 16.5668 17.4875C17.6527 16.4014 18.5121 15.1105 19.0949 13.6896C19.6778 12.2687 19.9725 10.7461 19.962 9.21035C19.962 9.03235 19.9577 8.85569 19.949 8.68035C20.7535 8.09875 21.448 7.37851 22 6.55335Z" fill="white"/>
</svg>
