<svg width="19" height="15" viewBox="0 0 19 15" fill="none" xmlns="http://www.w3.org/2000/svg">
<path opacity="0.7" d="M18.9942 1.78094C18.33 2.06597 17.6155 2.25876 16.8661 2.34486C17.6312 1.90126 18.2183 1.19937 18.4955 0.361648C17.7796 0.772622 16.9863 1.07076 16.1428 1.23146C15.467 0.534916 14.504 0.0996094 13.4378 0.0996094C11.3921 0.0996094 9.7329 1.70527 9.7329 3.685C9.7329 3.96602 9.76578 4.23956 9.82933 4.50213C6.75024 4.35266 4.02013 2.92535 2.19268 0.755509C1.87383 1.28494 1.69092 1.90126 1.69092 2.55823C1.69092 3.80185 2.34547 4.89974 3.33905 5.54254C2.73202 5.52409 2.16035 5.36285 1.66108 5.09359C1.6608 5.10884 1.6608 5.12408 1.6608 5.13905C1.6608 6.87626 2.93841 8.32523 4.63296 8.65439C4.3224 8.73674 3.99443 8.78032 3.65707 8.78032C3.41779 8.78032 3.18598 8.75813 2.95996 8.71642C3.43133 10.1405 4.79929 11.1772 6.4209 11.2063C5.15268 12.1681 3.55539 12.7411 1.81912 12.7411C1.52072 12.7411 1.22508 12.7243 0.935791 12.6909C2.57453 13.7085 4.52244 14.3019 6.61458 14.3019C13.4292 14.3019 17.156 8.83861 17.156 4.10025C17.156 3.9449 17.1524 3.79008 17.1452 3.6366C17.8697 3.13124 18.4977 2.49994 18.9942 1.78094Z" fill="black"/>
</svg>
