<svg width="21" height="18" viewBox="0 0 21 18" fill="none" xmlns="http://www.w3.org/2000/svg">
<path d="M18.112 2.38797C17.6722 1.94794 17.15 1.59888 16.5752 1.36073C16.0005 1.12258 15.3844 1 14.7623 1C14.1401 1 13.5241 1.12258 12.9493 1.36073C12.3746 1.59888 11.8524 1.94794 11.4126 2.38797L10.4998 3.30075L9.58699 2.38797C8.69858 1.49956 7.49364 1.00046 6.23725 1.00046C4.98085 1.00046 3.77591 1.49956 2.88751 2.38797C1.9991 3.27637 1.5 4.48131 1.5 5.73771C1.5 6.9941 1.9991 8.19904 2.88751 9.08745L3.80029 10.0002L10.4998 16.6997L17.1992 10.0002L18.112 9.08745C18.5521 8.64763 18.9011 8.12542 19.1393 7.55066C19.3774 6.9759 19.5 6.35985 19.5 5.73771C19.5 5.11556 19.3774 4.49951 19.1393 3.92475C18.9011 3.34999 18.5521 2.82779 18.112 2.38797V2.38797Z" stroke="#333333" stroke-width="1.5" stroke-linecap="round" stroke-linejoin="round"/>
</svg>
